# xmcd
#
# Track frame offsets: 
#        150
#        4877
#        23025
#        38790
#        53614
#        68710
#        84063
#        93252
#        112990
#        133122
#        150512
#        168883
#        176290
#        196278
#        208518
#
# Disc length: 3110 seconds
#
# Revision: 0
# Processed by: cddbd v1.5.2PL0 Copyright (c) Steve Scherf et al.
# Submitted via: ExactAudioCopy v0.99pb4
#
DISCID=aa0c240f
DTITLE=CunninLynguists - A Piece Of Strange
DYEAR=2006
DGENRE=Hip-Hop/Rap
TTITLE0=Where Will You Be?
TTITLE1=Since When
TTITLE2=Nothing To Give
TTITLE3=Caved In  
TTITLE4=Hourglass
TTITLE5=Beautiful Girl
TTITLE6=Inhale
TTITLE7=Brain Cell
TTITLE8=America Loves Gangsters   
TTITLE9=Never Know Why
TTITLE10=The Gates
TTITLE11=Damnation
TTITLE12=Remember Me
TTITLE13=What'll You Do?
TTITLE14=The Light
EXTD=
EXTT0=
EXTT1=
EXTT2=
EXTT3=
EXTT4=
EXTT5=
EXTT6=
EXTT7=
EXTT8=
EXTT9=
EXTT10=
EXTT11=
EXTT12=
EXTT13=
EXTT14=
PLAYORDER=
